<?xml version="1.0" encoding="UTF-8"?>
<svg id="Camada_2" data-name="Camada 2" xmlns="http://www.w3.org/2000/svg" viewBox="0 0 53.75 42.71"><defs><style>.cls-1 {fill: #77c7ca;}</style></defs><g id="Camada_1-2" data-name="Camada 1"><path class="cls-1" d="M11.19,22.83h9.43v19.88H0V22.24c.48-2.57,1.3-5.68,2.76-9.02C5.48,6.98,9.22,2.64,11.93,0c2.6,1.77,5.2,3.53,7.81,5.3-1.46,2.06-2.99,4.5-4.44,7.33-1.91,3.73-3.21,7.21-4.11,10.2Z"/><path class="cls-1" d="M44.33,22.83h9.43v19.88h-20.62V22.24c.48-2.57,1.3-5.68,2.76-9.02,2.72-6.24,6.46-10.57,9.17-13.22,2.6,1.77,5.2,3.53,7.81,5.3-1.46,2.06-2.99,4.5-4.44,7.33-1.91,3.73-3.21,7.21-4.11,10.2Z"/></g></svg>